Coordinates
version=1
nRows=17
nColumns=24
inDegrees=yes

Units are S.I. units (second, meters, Newtons, ...)
If the header above contains a line with 'inDegrees', this indicates whether rotational values are in degrees (yes) or radians (no).

endheader
time	pelvis_tilt	pelvis_list	pelvis_rotation	pelvis_tx	pelvis_ty	pelvis_tz	hip_flexion_r	hip_adduction_r	hip_rotation_r	knee_angle_r	ankle_angle_r	subtalar_angle_r	mtp_angle_r	hip_flexion_l	hip_adduction_l	hip_rotation_l	knee_angle_l	ankle_angle_l	subtalar_angle_l	mtp_angle_l	lumbar_extension	lumbar_bending	lumbar_rotation
      0.61700000	      3.77383024	      2.67197277	      1.00325721	      0.58553711	      1.00892519	     -0.01425032	     19.21832049	     -4.90779592	     -4.95813788	     -0.84137590	      1.66214554	     -0.00000097	      0.00000000	    -21.17775752	      4.66424614	      2.90078099	     -3.50478681	     11.54975528	      0.00000122	      0.00000000	    -16.61043428	     -3.53683298	     -5.96958230
      0.63300000	      3.73684006	      2.63232921	      1.53491776	      0.58648810	      1.00738095	     -0.01184791	     19.92793223	     -4.83069548	     -5.30980221	     -3.58264699	      1.01498336	     -0.00000157	      0.00000000	    -21.55328403	      4.16147759	      3.57865913	     -5.08566504	     12.03699493	      0.00000155	      0.00000000	    -16.58905757	     -3.18698596	     -6.26098689
      0.65000000	      3.60720808	      2.47873231	      2.02379384	      0.58798420	      1.00611030	     -0.00884100	     20.74384219	     -4.63583679	     -5.77592141	     -6.78634707	      0.01020773	     -0.00000216	      0.00000000	    -21.72372531	      3.54567604	      4.22981061	     -6.87436527	     12.34876765	      0.00000199	      0.00000000	    -16.36000723	     -2.80167848	     -6.63192115
      0.66700000	      3.46748508	      2.41698066	      2.40912936	      0.58993818	      1.00553047	     -0.00632355	     21.44974859	     -4.58373561	     -6.06065418	     -9.97899025	     -1.09045808	     -0.00000261	      0.00000000	    -21.66656068	      3.14209969	      4.85391090	     -9.09365015	     12.34995259	      0.00000243	      0.00000000	    -16.07918552	     -2.30599880	     -6.81562975
      0.68300000	      3.54367416	      2.37485248	      2.53583641	      0.59161556	      1.00570563	     -0.00350925	     22.06721931	     -4.50067529	     -6.01344133	    -13.53803879	     -1.69672845	     -0.00000307	      0.00000000	    -21.46749844	      2.88869154	      5.24626664	    -11.97670503	     12.06261710	      0.00000292	      0.00000000	    -15.98366473	     -1.83191228	     -6.70086882
      0.70000000	      3.82121143	      2.09836493	      2.83617113	      0.59500314	      1.00698653	     -0.00110370	     22.11080608	     -4.25404252	     -6.10544644	    -16.80516489	     -1.73346263	     -0.00000340	      0.00000000	    -21.20520612	      2.36297732	      5.62143977	    -15.43667305	     11.27935633	      0.00000361	      0.00000000	    -16.11100813	     -1.13417426	     -6.79812363
      0.71700000	      4.09649691	      1.84203419	      3.05595112	      0.59805134	      1.00876651	      0.00131935	     21.68207043	     -3.98724276	     -6.16374945	    -19.16742054	     -1.60930757	     -0.00000349	      0.00000000	    -20.32831770	      1.93566335	      5.70132098	    -19.88021654	     10.01662004	      0.00000449	      0.00000000	    -16.10796276	     -0.34201420	     -6.92165818
      0.73300000	      4.19954053	      1.71024715	      3.21489544	      0.60028070	      1.01031807	      0.00437784	     21.34728323	     -3.79816052	     -6.21274164	    -21.31224223	     -1.14921478	     -0.00000350	      0.00000000	    -18.31908620	      1.66889172	      5.38244168	    -25.84432981	      8.26330934	      0.00000563	      0.00000000	    -16.00723947	      0.12083208	     -6.77690819
      0.75000000	      4.29851792	      1.41595982	      3.29326926	      0.60293208	      1.01226177	      0.00750118	     20.53921743	     -3.38629792	     -6.42617102	    -22.62087852	     -0.47610250	     -0.00000302	      0.00000000	    -15.89768872	      1.14874571	      4.43494834	    -32.14920086	      5.48928792	      0.00000675	      0.00000000	    -15.85189668	      0.68944067	     -6.97257865
      0.76700000	      4.21871157	      1.07701255	      3.39483348	      0.60485313	      1.01401763	      0.01046402	     19.77676482	     -2.90282674	     -6.63299342	    -23.61124580	      0.51818413	     -0.00000273	      0.00000000	    -12.71669046	      0.37042071	      2.97644773	    -38.88689471	      1.86173528	      0.00000771	      0.00000000	    -15.61147008	      1.32287669	     -6.64338807
      0.78300000	      4.15777489	      0.50250575	      3.47727899	      0.60542419	      1.01578974	      0.01396864	     18.74402831	     -2.07940888	     -6.94071228	    -23.90688892	      1.43740021	     -0.00000240	      0.00000000	     -9.29218284	     -0.93366637	      1.25187483	    -45.38770035	     -2.03883183	      0.00000762	      0.00000000	    -15.45584666	      2.05194214	     -6.25020605
      0.80000000	      4.18051318	     -0.26566789	      3.38007513	      0.60595326	      1.01756849	      0.01767397	     17.58043457	     -0.94788037	     -7.04785312	    -24.05777295	      2.50760468	     -0.00000245	      0.00000000	     -5.97835666	     -2.67025454	     -0.66925450	    -51.33358630	     -5.42027177	      0.00000655	      0.00000000	    -15.36590387	      2.93387836	     -5.44786946
      0.81700000	      4.26061121	     -1.07982806	      3.43389835	      0.60620102	      1.01995280	      0.02150724	     16.00248427	      0.25356271	     -7.30192988	    -23.46646860	      3.35558446	     -0.00000241	      0.00000000	     -2.96422469	     -4.51372205	     -2.01156932	    -56.32479918	     -7.40416087	      0.00000433	      0.00000000	    -15.19558561	      3.80175249	     -5.21683747
      0.83300000	      4.36872636	     -1.55751284	      3.44866829	      0.60599151	      1.02274023	      0.02491482	     14.38673044	      1.11034400	     -7.35648157	    -22.82397585	      4.16776603	     -0.00000234	      0.00000000	     -0.15953052	     -5.85187101	     -2.94648525	    -60.50255091	     -7.78915664	      0.00000183	      0.00000000	    -15.22815605	      4.26789165	     -4.56239448
      0.85000000	      4.48708931	     -1.90355589	      3.28953223	      0.60561843	      1.02585898	      0.02821139	     12.57945198	      1.87022517	     -7.21129104	    -21.77105852	      4.76993690	     -0.00000242	      0.00000000	      2.44076586	     -6.79161895	     -3.59694794	    -63.86523717	     -6.87872556	     -0.00000071	      0.00000000	    -15.37474263	      4.47583121	     -3.88701078
      0.86700000	      4.66443138	     -1.94314136	      3.09053679	      0.60518193	      1.02920927	      0.03111713	     10.74347152	      2.27233750	     -6.94576449	    -20.82491391	      5.34835414	     -0.00000225	      0.00000000	      4.78316709	     -7.16697558	     -4.03216257	    -66.33616938	     -5.38752596	     -0.00000253	      0.00000000	    -15.48039330	      4.41591099	     -3.15805933
      0.88300000	      4.67629356	     -1.81577501	      2.92957629	      0.60415363	      1.03241823	      0.03370574	      8.92217465	      2.46788504	     -6.70670372	    -19.48112670	      5.75080075	     -0.00000213	      0.00000000	      7.23426404	     -7.10361991	     -4.18231193	    -68.02900106	     -3.85624311	     -0.00000355	      0.00000000	    -15.53591886	      4.13528523	     -2.72603882
